<svg xmlns="http://www.w3.org/2000/svg" xmlns:xlink="http://www.w3.org/1999/xlink" width="100" zoomAndPan="magnify" viewBox="0 0 75 74.999997" height="100" preserveAspectRatio="xMidYMid meet" version="1.0"><path fill="#284b70" d="M 39 0.00390625 C 48.3125 -0.109375 57.3125 3.390625 64.089844 9.757812 L 53.382812 20.464844 C 49.511719 16.769531 44.34375 14.757812 39 14.84375 C 29.214844 14.84375 20.90625 21.441406 17.945312 30.328125 C 16.375 34.988281 16.375 40.03125 17.945312 44.6875 C 20.933594 53.558594 29.230469 60.160156 39.011719 60.160156 C 44.070312 60.160156 48.410156 58.863281 51.773438 56.578125 L 51.757812 56.582031 C 55.449219 54.132812 58.046875 50.382812 59.0625 46.105469 L 59.253906 45.183594 L 39 45.183594 L 39 30.742188 L 74.367188 30.742188 C 74.808594 33.25 75.015625 35.8125 75.015625 38.363281 C 75.015625 49.769531 70.9375 59.417969 63.839844 65.949219 L 63.847656 65.9375 C 57.910156 71.429688 49.847656 74.707031 40.308594 74.980469 L 39 75 C 24.820312 75 11.855469 67.007812 5.488281 54.347656 L 4.9375 53.203125 C 0.175781 42.859375 0.359375 30.886719 5.488281 20.671875 L 6.035156 19.625 C 12.574219 7.554688 25.214844 0.00390625 39 0.00390625 Z M 39 0.00390625 " fill-opacity="1" fill-rule="nonzero"/></svg>