<svg xmlns="http://www.w3.org/2000/svg" xmlns:xlink="http://www.w3.org/1999/xlink" width="100" zoomAndPan="magnify" viewBox="0 0 75 74.999997" height="100" preserveAspectRatio="xMidYMid meet" version="1.0"><path fill="#284b70" d="M 37.5 0 C 16.785156 0 0 16.785156 0 37.5 C 0 58.214844 16.785156 75 37.5 75 C 58.214844 75 75 58.214844 75 37.5 C 74.96875 16.785156 58.183594 0 37.5 0 Z M 26.492188 57.46875 L 17.695312 57.46875 L 17.695312 29.089844 L 26.492188 29.089844 Z M 22.109375 25.324219 C 19.285156 25.324219 16.980469 23.019531 16.980469 20.195312 C 16.980469 17.371094 19.285156 15.066406 22.109375 15.066406 C 24.933594 15.066406 27.242188 17.371094 27.242188 20.195312 C 27.242188 23.019531 24.933594 25.324219 22.109375 25.324219 Z M 59.546875 57.46875 L 50.746094 57.46875 L 50.746094 43.277344 C 50.746094 41.265625 50.746094 36.265625 46.265625 36.265625 C 41.167969 36.265625 40.84375 41.429688 40.84375 41.429688 L 40.84375 57.46875 L 32.078125 57.46875 L 32.078125 29.089844 L 40.875 29.089844 L 40.875 32.988281 C 42.953125 28.765625 47.242188 28.441406 50.03125 28.441406 C 53.214844 28.441406 56.070312 29.675781 57.695312 32.402344 C 59.089844 34.707031 59.546875 38.050781 59.546875 43.277344 Z M 59.546875 57.46875 " fill-opacity="1" fill-rule="nonzero"/></svg>