<svg xmlns="http://www.w3.org/2000/svg" xmlns:xlink="http://www.w3.org/1999/xlink" width="100" zoomAndPan="magnify" viewBox="0 0 75 74.999997" height="100" preserveAspectRatio="xMidYMid meet" version="1.0"><defs><clipPath id="id1"><path d="M 0 0 L 75 0 L 75 73.5 L 0 73.5 Z M 0 0 " clip-rule="nonzero"/></clipPath></defs><g clip-path="url(#id1)"><path fill="#284b70" d="M 37.5 0.0273438 C 16.792969 0.0273438 0 16.816406 0 37.527344 C 0 54.097656 10.746094 68.152344 25.644531 73.109375 C 27.519531 73.457031 28.207031 72.296875 28.207031 71.304688 C 28.207031 70.410156 28.171875 67.457031 28.15625 64.324219 C 17.722656 66.59375 15.523438 59.898438 15.523438 59.898438 C 13.816406 55.5625 11.359375 54.414062 11.359375 54.414062 C 7.957031 52.085938 11.613281 52.132812 11.613281 52.132812 C 15.378906 52.398438 17.363281 55.996094 17.363281 55.996094 C 20.707031 61.730469 26.136719 60.074219 28.277344 59.113281 C 28.613281 56.691406 29.582031 55.035156 30.65625 54.097656 C 22.328125 53.152344 13.570312 49.9375 13.570312 35.570312 C 13.570312 31.472656 15.035156 28.128906 17.433594 25.503906 C 17.046875 24.558594 15.761719 20.742188 17.796875 15.578125 C 17.796875 15.578125 20.949219 14.570312 28.113281 19.421875 C 31.105469 18.589844 34.3125 18.175781 37.5 18.160156 C 40.6875 18.175781 43.898438 18.589844 46.894531 19.421875 C 54.050781 14.570312 57.195312 15.578125 57.195312 15.578125 C 59.238281 20.742188 57.953125 24.558594 57.566406 25.503906 C 59.96875 28.128906 61.421875 31.472656 61.421875 35.570312 C 61.421875 49.972656 52.652344 53.140625 44.300781 54.070312 C 45.644531 55.234375 46.847656 57.515625 46.847656 61.015625 C 46.847656 66.03125 46.800781 70.070312 46.800781 71.304688 C 46.800781 72.304688 47.476562 73.472656 49.378906 73.105469 C 64.269531 68.140625 75 54.089844 75 37.527344 C 75 16.816406 58.210938 0.0273438 37.5 0.0273438 Z M 14.046875 53.445312 C 13.960938 53.632812 13.667969 53.6875 13.402344 53.558594 C 13.128906 53.4375 12.976562 53.183594 13.066406 52.996094 C 13.144531 52.804688 13.441406 52.75 13.710938 52.878906 C 13.984375 53.003906 14.140625 53.257812 14.046875 53.445312 Z M 15.890625 55.09375 C 15.710938 55.257812 15.359375 55.179688 15.125 54.917969 C 14.878906 54.65625 14.832031 54.308594 15.015625 54.140625 C 15.199219 53.972656 15.539062 54.050781 15.785156 54.3125 C 16.027344 54.578125 16.078125 54.925781 15.890625 55.09375 Z M 17.15625 57.199219 C 16.925781 57.355469 16.550781 57.207031 16.316406 56.875 C 16.085938 56.539062 16.085938 56.140625 16.324219 55.980469 C 16.554688 55.820312 16.925781 55.964844 17.160156 56.296875 C 17.390625 56.632812 17.390625 57.035156 17.15625 57.199219 Z M 19.296875 59.636719 C 19.089844 59.863281 18.652344 59.804688 18.332031 59.492188 C 18.003906 59.191406 17.914062 58.761719 18.117188 58.535156 C 18.328125 58.308594 18.765625 58.371094 19.089844 58.679688 C 19.414062 58.980469 19.515625 59.414062 19.296875 59.636719 Z M 22.0625 60.460938 C 21.96875 60.753906 21.550781 60.886719 21.125 60.761719 C 20.699219 60.636719 20.421875 60.289062 20.507812 59.992188 C 20.597656 59.699219 21.019531 59.558594 21.449219 59.691406 C 21.871094 59.820312 22.148438 60.160156 22.0625 60.460938 Z M 25.210938 60.808594 C 25.21875 61.117188 24.859375 61.375 24.414062 61.378906 C 23.964844 61.390625 23.601562 61.140625 23.597656 60.835938 C 23.597656 60.523438 23.949219 60.269531 24.398438 60.261719 C 24.84375 60.253906 25.210938 60.5 25.210938 60.808594 Z M 28.300781 60.691406 C 28.355469 60.992188 28.046875 61.304688 27.601562 61.386719 C 27.167969 61.464844 26.765625 61.277344 26.707031 60.976562 C 26.65625 60.671875 26.96875 60.359375 27.40625 60.28125 C 27.847656 60.203125 28.246094 60.382812 28.300781 60.691406 Z M 28.300781 60.691406 " fill-opacity="1" fill-rule="nonzero"/></g></svg>