<svg xmlns="http://www.w3.org/2000/svg" xmlns:xlink="http://www.w3.org/1999/xlink" width="100" zoomAndPan="magnify" viewBox="0 0 75 74.999997" height="100" preserveAspectRatio="xMidYMid meet" version="1.0"><path fill="#284b70" d="M 75 37.5 C 75 58.21875 58.21875 75 37.5 75 C 16.78125 75 0 58.21875 0 37.5 C 0 16.78125 16.78125 0 37.5 0 C 58.21875 0 75 16.78125 75 37.5 Z M 30.636719 57.28125 C 47.269531 57.28125 56.363281 43.5 56.363281 31.554688 C 56.363281 31.164062 56.363281 30.769531 56.34375 30.394531 C 58.105469 29.117188 59.644531 27.523438 60.863281 25.707031 C 59.25 26.417969 57.507812 26.90625 55.667969 27.132812 C 57.542969 26.007812 58.96875 24.242188 59.644531 22.125 C 57.898438 23.15625 55.96875 23.90625 53.90625 24.320312 C 52.257812 22.554688 49.914062 21.46875 47.304688 21.46875 C 42.320312 21.46875 38.269531 25.519531 38.269531 30.507812 C 38.269531 31.21875 38.34375 31.914062 38.511719 32.570312 C 30.992188 32.195312 24.335938 28.59375 19.875 23.117188 C 19.105469 24.449219 18.65625 26.007812 18.65625 27.65625 C 18.65625 30.789062 20.25 33.5625 22.6875 35.175781 C 21.207031 35.136719 19.820312 34.726562 18.601562 34.050781 C 18.601562 34.085938 18.601562 34.125 18.601562 34.164062 C 18.601562 38.550781 21.710938 42.1875 25.855469 43.03125 C 25.105469 43.238281 24.300781 43.351562 23.476562 43.351562 C 22.894531 43.351562 22.332031 43.292969 21.769531 43.179688 C 22.914062 46.78125 26.25 49.386719 30.207031 49.460938 C 27.113281 51.882812 23.210938 53.324219 18.976562 53.324219 C 18.242188 53.324219 17.53125 53.289062 16.820312 53.195312 C 20.773438 55.78125 25.539062 57.28125 30.636719 57.28125 " fill-opacity="1" fill-rule="nonzero"/></svg>