<svg xmlns="http://www.w3.org/2000/svg" xmlns:xlink="http://www.w3.org/1999/xlink" width="100" zoomAndPan="magnify" viewBox="0 0 75 74.999997" height="100" preserveAspectRatio="xMidYMid meet" version="1.0"><defs><g/></defs><path fill="#284b70" d="M 3 0 L 72 0 C 72.796875 0 73.558594 0.316406 74.121094 0.878906 C 74.683594 1.441406 75 2.203125 75 3 L 75 72 C 75 72.796875 74.683594 73.558594 74.121094 74.121094 C 73.558594 74.683594 72.796875 75 72 75 L 3 75 C 2.203125 75 1.441406 74.683594 0.878906 74.121094 C 0.316406 73.558594 0 72.796875 0 72 L 0 3 C 0 2.203125 0.316406 1.441406 0.878906 0.878906 C 1.441406 0.316406 2.203125 0 3 0 " fill-opacity="1" fill-rule="nonzero"/><g fill="#ffffff" fill-opacity="1"><g transform="translate(1.253908, 54.374995)"><g><path d="M 16.703125 0.546875 C 14.398438 0.546875 12.363281 0.125 10.59375 -0.71875 C 8.832031 -1.5625 7.335938 -2.722656 6.109375 -4.203125 C 4.890625 -5.691406 3.960938 -7.445312 3.328125 -9.46875 C 2.703125 -11.5 2.390625 -13.679688 2.390625 -16.015625 C 2.390625 -18.710938 2.765625 -21.101562 3.515625 -23.1875 C 4.265625 -25.269531 5.269531 -27.007812 6.53125 -28.40625 C 7.789062 -29.800781 9.253906 -30.859375 10.921875 -31.578125 C 12.597656 -32.296875 14.335938 -32.65625 16.140625 -32.65625 C 17.128906 -32.65625 18 -32.554688 18.75 -32.359375 C 19.5 -32.160156 20.148438 -31.90625 20.703125 -31.59375 C 21.253906 -31.289062 21.710938 -30.945312 22.078125 -30.5625 C 22.441406 -30.175781 22.71875 -29.800781 22.90625 -29.4375 L 23.1875 -29.4375 L 23.1875 -32.109375 L 28.515625 -32.109375 L 28.515625 -21.890625 L 23.1875 -21.890625 L 23.1875 -23.96875 C 23.1875 -25.53125 22.671875 -26.785156 21.640625 -27.734375 C 20.617188 -28.679688 19.125 -29.15625 17.15625 -29.15625 C 15.101562 -29.15625 13.492188 -28.507812 12.328125 -27.21875 C 11.160156 -25.9375 10.578125 -23.914062 10.578125 -21.15625 L 10.578125 -11.828125 C 10.578125 -10.378906 10.757812 -9.148438 11.125 -8.140625 C 11.5 -7.128906 12.015625 -6.285156 12.671875 -5.609375 C 13.328125 -4.929688 14.109375 -4.441406 15.015625 -4.140625 C 15.921875 -3.835938 16.910156 -3.6875 17.984375 -3.6875 C 19.953125 -3.6875 21.617188 -4.195312 22.984375 -5.21875 C 24.347656 -6.25 25.378906 -7.640625 26.078125 -9.390625 L 28.703125 -7.859375 C 28.304688 -6.703125 27.738281 -5.609375 27 -4.578125 C 26.257812 -3.546875 25.375 -2.644531 24.34375 -1.875 C 23.320312 -1.113281 22.164062 -0.519531 20.875 -0.09375 C 19.59375 0.332031 18.203125 0.546875 16.703125 0.546875 Z M 16.703125 0.546875 "/></g></g></g><g fill="#ffffff" fill-opacity="1"><g transform="translate(31.841331, 54.374995)"><g><path d="M 14.671875 0.546875 C 13.753906 0.546875 12.921875 0.445312 12.171875 0.25 C 11.421875 0.0507812 10.757812 -0.207031 10.1875 -0.53125 C 9.625 -0.851562 9.148438 -1.203125 8.765625 -1.578125 C 8.378906 -1.960938 8.09375 -2.328125 7.90625 -2.671875 L 7.734375 -2.671875 L 7.734375 0 L 2.390625 0 L 2.390625 -9.390625 L 7.734375 -9.390625 L 7.734375 -7.40625 C 7.734375 -5.75 8.3125 -4.578125 9.46875 -3.890625 C 10.632812 -3.203125 12.234375 -2.859375 14.265625 -2.859375 C 16.378906 -2.859375 17.945312 -3.285156 18.96875 -4.140625 C 20 -4.992188 20.515625 -6.113281 20.515625 -7.5 C 20.515625 -8.175781 20.429688 -8.757812 20.265625 -9.25 C 20.097656 -9.738281 19.8125 -10.160156 19.40625 -10.515625 C 19.007812 -10.867188 18.472656 -11.175781 17.796875 -11.4375 C 17.128906 -11.695312 16.285156 -11.929688 15.265625 -12.140625 L 13.203125 -12.609375 C 11.640625 -12.910156 10.207031 -13.328125 8.90625 -13.859375 C 7.601562 -14.398438 6.488281 -15.097656 5.5625 -15.953125 C 4.644531 -16.816406 3.929688 -17.847656 3.421875 -19.046875 C 2.921875 -20.242188 2.671875 -21.65625 2.671875 -23.28125 C 2.671875 -24.65625 2.914062 -25.914062 3.40625 -27.0625 C 3.894531 -28.21875 4.597656 -29.207031 5.515625 -30.03125 C 6.441406 -30.863281 7.585938 -31.507812 8.953125 -31.96875 C 10.316406 -32.425781 11.867188 -32.65625 13.609375 -32.65625 C 14.566406 -32.65625 15.421875 -32.554688 16.171875 -32.359375 C 16.921875 -32.160156 17.578125 -31.90625 18.140625 -31.59375 C 18.710938 -31.289062 19.179688 -30.945312 19.546875 -30.5625 C 19.921875 -30.175781 20.195312 -29.816406 20.375 -29.484375 L 20.5625 -29.484375 L 20.5625 -32.109375 L 25.890625 -32.109375 L 25.890625 -22.71875 L 20.5625 -22.71875 L 20.5625 -24.75 C 20.5625 -26.375 19.992188 -27.53125 18.859375 -28.21875 C 17.722656 -28.90625 16.25 -29.25 14.4375 -29.25 C 12.351562 -29.25 10.828125 -28.8125 9.859375 -27.9375 C 8.898438 -27.070312 8.421875 -26.023438 8.421875 -24.796875 C 8.421875 -24.085938 8.523438 -23.488281 8.734375 -23 C 8.953125 -22.507812 9.296875 -22.078125 9.765625 -21.703125 C 10.242188 -21.335938 10.863281 -21.023438 11.625 -20.765625 C 12.394531 -20.503906 13.332031 -20.253906 14.4375 -20.015625 L 16.375 -19.640625 C 17.96875 -19.304688 19.398438 -18.867188 20.671875 -18.328125 C 21.953125 -17.796875 23.023438 -17.113281 23.890625 -16.28125 C 24.765625 -15.457031 25.429688 -14.484375 25.890625 -13.359375 C 26.359375 -12.242188 26.59375 -10.945312 26.59375 -9.46875 C 26.59375 -8.03125 26.316406 -6.695312 25.765625 -5.46875 C 25.210938 -4.25 24.421875 -3.191406 23.390625 -2.296875 C 22.359375 -1.410156 21.109375 -0.710938 19.640625 -0.203125 C 18.171875 0.296875 16.515625 0.546875 14.671875 0.546875 Z M 14.671875 0.546875 "/></g></g></g><g fill="#ffffff" fill-opacity="1"><g transform="translate(60.772896, 54.374995)"><g><path d="M 6.484375 0.546875 C 5.140625 0.546875 4.113281 0.15625 3.40625 -0.625 C 2.695312 -1.40625 2.34375 -2.347656 2.34375 -3.453125 L 2.34375 -3.640625 C 2.34375 -4.742188 2.695312 -5.6875 3.40625 -6.46875 C 4.113281 -7.25 5.140625 -7.640625 6.484375 -7.640625 C 7.835938 -7.640625 8.863281 -7.25 9.5625 -6.46875 C 10.269531 -5.6875 10.625 -4.742188 10.625 -3.640625 L 10.625 -3.453125 C 10.625 -2.347656 10.269531 -1.40625 9.5625 -0.625 C 8.863281 0.15625 7.835938 0.546875 6.484375 0.546875 Z M 6.484375 0.546875 "/></g></g></g><g fill="#ffffff" fill-opacity="1"><g transform="translate(71.246516, 46.60895)"><g><path d="M -7.703125 -1.25 L -7.703125 -4.390625 C -7.703125 -5.203125 -7.535156 -5.921875 -7.203125 -6.546875 C -6.878906 -7.171875 -6.425781 -7.65625 -5.84375 -8 C -5.257812 -8.34375 -4.59375 -8.515625 -3.84375 -8.515625 C -3.101562 -8.515625 -2.441406 -8.34375 -1.859375 -8 C -1.273438 -7.65625 -0.816406 -7.171875 -0.484375 -6.546875 C -0.160156 -5.921875 0 -5.203125 0 -4.390625 L 0 -1.25 Z M -0.703125 -4.34375 C -0.703125 -5.019531 -0.832031 -5.609375 -1.09375 -6.109375 C -1.363281 -6.617188 -1.734375 -7.015625 -2.203125 -7.296875 C -2.679688 -7.578125 -3.226562 -7.71875 -3.84375 -7.71875 C -4.46875 -7.71875 -5.015625 -7.578125 -5.484375 -7.296875 C -5.953125 -7.015625 -6.320312 -6.617188 -6.59375 -6.109375 C -6.863281 -5.609375 -7 -5.019531 -7 -4.34375 L -7 -2.0625 L -0.703125 -2.0625 Z M -0.703125 -4.34375 "/></g></g></g><g fill="#ffffff" fill-opacity="1"><g transform="translate(71.246516, 37.529369)"><g><path d="M -0.703125 -6.703125 L 0 -6.703125 L 0 -1.25 L -7.703125 -1.25 L -7.703125 -6.53125 L -7 -6.53125 L -7 -2.0625 L -4.25 -2.0625 L -4.25 -6.046875 L -3.5625 -6.046875 L -3.5625 -2.0625 L -0.703125 -2.0625 Z M -0.703125 -6.703125 "/></g></g></g><g fill="#ffffff" fill-opacity="1"><g transform="translate(71.246516, 30.175568)"><g><path d="M -7.703125 -7.65625 L 0 -4.25 L 0 -3.4375 L -7.703125 -0.03125 L -7.703125 -0.90625 L -1.015625 -3.859375 L -7.703125 -6.828125 Z M -7.703125 -7.65625 "/></g></g></g></svg>